<?xml version="1.0" encoding="utf-8"?>
<!-- Generator: Adobe Illustrator 25.2.1, SVG Export Plug-In . SVG Version: 6.00 Build 0)  -->
<svg version="1.1" id="Capa_1" xmlns="http://www.w3.org/2000/svg" xmlns:xlink="http://www.w3.org/1999/xlink" x="0px" y="0px"
	 viewBox="0 0 2193.6 114.4" style="enable-background:new 0 0 2193.6 114.4;" xml:space="preserve">
<style type="text/css">
	.st0{fill:#FFFFFF;}
</style>
<g>
	<g>
		<rect x="-2.5" y="0.5" class="st0" width="2193.6" height="2.4"/>
	</g>
	<g>
		<rect x="-2.5" y="112.5" class="st0" width="2193.6" height="2.4"/>
	</g>
</g>
<g>
	<g>
		<g>
			<path class="st0" d="M1652.5,62.8v-5c0-3.4,1-6,3-7.6c2.1-1.6,4.8-2.4,8.1-2.4c3.2,0,5.7,0.7,7.7,2.2c1.9,1.5,2.8,3.4,2.8,5.9
				v0.2h-3.6V56c0-1.6-0.6-2.9-1.8-3.8c-1.2-0.9-2.8-1.4-4.9-1.4c-2.3,0-4.1,0.5-5.4,1.6c-1.3,1.1-2,3-2,5.6v4.6
				c0,2.7,0.6,4.6,1.9,5.6c1.3,1,3.1,1.6,5.4,1.6c2.1,0,3.7-0.4,4.9-1.3c1.2-0.9,1.8-2.2,1.8-3.8v-0.3h3.6v0.2
				c0,2.5-0.9,4.4-2.8,5.9c-1.9,1.5-4.5,2.2-7.6,2.2c-3.4,0-6.1-0.8-8.1-2.3C1653.5,68.9,1652.5,66.3,1652.5,62.8z"/>
			<path class="st0" d="M1677.8,62.8v-5c0-3.4,1-6,3-7.6c2-1.6,4.7-2.4,7.9-2.4c3.2,0,5.8,0.8,7.8,2.4c2,1.6,3,4.2,3,7.6v5
				c0,3.5-1,6-3,7.6c-1.9,1.6-4.5,2.4-7.8,2.4c-3.3,0-5.9-0.8-7.9-2.3C1678.8,68.9,1677.8,66.3,1677.8,62.8z M1695.7,62.7V58
				c0-2.6-0.6-4.5-1.9-5.6c-1.3-1.1-3-1.6-5.1-1.6c-2.1,0-3.9,0.5-5.2,1.6c-1.3,1.1-1.9,3-1.9,5.6v4.6c0,2.7,0.6,4.6,1.9,5.6
				c1.3,1,3,1.6,5.2,1.6c2.2,0,3.9-0.5,5.1-1.6C1695.1,67.2,1695.7,65.3,1695.7,62.7z"/>
			<path class="st0" d="M1707.1,48.5v3c0.4-0.5,0.9-1,1.4-1.4c0.5-0.4,1.1-0.7,1.8-1c1.3-0.6,2.7-0.8,4.4-0.8c3.1,0,5.4,0.8,7,2.3
				c1.6,1.5,2.4,3.6,2.4,6.3v16h-3.8V57.3c0-2-0.6-3.5-1.7-4.6c-1.1-1-2.7-1.6-4.8-1.6c-2.1,0-3.7,0.5-4.9,1.6
				c-1.2,1-1.8,2.6-1.8,4.6v15.4h-3.8V48.5H1707.1z"/>
			<path class="st0" d="M1732.6,62.4c0,2.7,0.7,4.6,2,5.8c1.3,1.1,3.1,1.6,5.4,1.6c2,0,3.6-0.4,4.7-1.3c1.1-0.8,1.7-2,1.7-3.4V65
				h3.7v0.3c0,2.2-0.9,4.1-2.8,5.5c-1.8,1.4-4.4,2-7.7,2c-3.3,0-5.9-0.8-7.9-2.5c-2-1.7-3-4.3-3-7.9v-4.2c0-3.5,1-6.1,3-7.7
				c2-1.7,4.6-2.6,7.8-2.6c3.2,0,5.8,0.9,7.8,2.6c1.9,1.6,2.9,4.2,2.9,7.7V61h-17.7V62.4z M1732.6,58v0.5h13.9v-0.8
				c0-2.6-0.6-4.3-1.8-5.3c-1.3-1-3-1.6-5.1-1.6c-2.1,0-3.8,0.5-5.1,1.6C1733.2,53.5,1732.6,55.4,1732.6,58z"/>
		</g>
		<g>
			<rect x="1786.2" y="49.8" class="st0" width="3.6" height="23"/>
			<rect x="1786.2" y="41.9" class="st0" width="3.6" height="4.1"/>
		</g>
		<path class="st0" d="M1801.6,66.6c0,2.2,1.2,3.3,3.7,3.3h2.2v2.9h-2.9c-2.2,0-3.9-0.5-5.1-1.6c-1.2-1.1-1.8-2.6-1.8-4.4V51.1h-4.4
			v-2.6h4.4v-5.5l3.9-1.6v7.1h6.4v2.6h-6.4V66.6z"/>
		<path class="st0" d="M1822.1,75.4c-0.7,1.6-1.6,2.8-2.8,3.5c-1.2,0.7-2.8,1.1-4.7,1.1h-1.7v-3h1.4c1.4,0,2.4-0.2,3.1-0.7
			c0.7-0.4,1.2-1.2,1.7-2.3l0.6-1.5l-9.8-24.1h4.1l7.5,19.4l7.5-19.4h4L1822.1,75.4z"/>
		<path class="st0" d="M1767.8,60.3"/>
		<path class="st0" d="M1767.7,60.2"/>
		<g>
			<polygon class="st0" points="1767.5,60.3 1758.7,47.9 1754.9,47.9 1763.7,60.3 1754.9,72.8 1758.7,72.8 			"/>
			<polygon class="st0" points="1769,67.6 1777.8,55.1 1781.6,55.1 1772.8,67.6 1781.6,80.1 1777.8,80.1 			"/>
		</g>
	</g>
	<g>
		<g>
			<path class="st0" d="M117,70.5c-2.3-0.5-2.3-3.1-2.3-5.5V46.1h7.5v-1h-7.5v-9.7h-1.3c-0.5,4.3-3.2,8.2-6.6,9.9v1h3.8v18.9
				c0,4.1,0,7.9,5.1,7.9c3,0,5-1.3,7.5-4.2l-0.6-0.8C121,69.5,119.3,71.1,117,70.5"/>
		</g>
		<g>
			<path class="st0" d="M96.1,56.1c-4.2-1.3-7.9-2.6-7.9-6c0-2.7,2.9-4.3,5.3-4.3c4.9,0,8.2,4.9,10.5,7.7l0.8-0.5l-2.7-7.7
				c-2.8,2.3-4.3-0.5-8.2-0.5c-4.5,0-8.5,3-8.5,7.7c0,5.3,4.9,6.8,9.7,8.2c4.2,1.3,8.1,2.5,8.1,6.2c0,2.8-2.3,5.1-5.4,5.1
				c-4.5,0-9.9-4.9-12-8.4L85,64.1l3.4,8.4c0.7-0.5,1.8-1.2,3.2-1.1c1.5,0.1,3.4,1.6,6.2,1.6c4.2,0,8.4-3.4,8.4-8.2
				C106.1,59.3,100.9,57.6,96.1,56.1"/>
		</g>
		<g>
			<path class="st0" d="M80.8,69.6c-2-0.1-1.9-2.5-1.9-4.3V52.8c0-2.3,0-4.6-1.9-6.2c-1.9-1.6-4.9-1.9-6.9-1.9
				c-3.1,0-9.9,1.6-9.9,6.1c0,1.2,0.8,2.1,2.3,2.1c1.8,0,2.4-0.8,2.9-2.6c0.5-2,1.6-4.7,5.1-4.7c4.5,0,4.5,4.9,4.5,6.5v4.2
				c0,0-15.8,1.2-15.8,10.3c0,3.8,2.5,6.3,6.3,6.3c5.4,0,9.4-4.2,9.4-4.2s0.3,3.7,3.6,3.7c2.5,0,4.2-2,5.5-3.8L83,68
				C82.8,68.1,81.9,69.6,80.8,69.6 M74.6,67.4c0,0-3.2,3.4-6.6,3.4c-2.7,0-4.6-2-4.6-4.9c0-6.8,11.2-8.6,11.2-8.6V67.4z"/>
		</g>
		<g>
			<path class="st0" d="M168.4,69.6c-2.1,0-2.1-2.8-2.1-4.3V52.8c0-2.3,0-4.6-1.9-6.2c-1.9-1.6-4.9-1.9-6.9-1.9
				c-3.1,0-9.9,1.6-9.9,6.1c0,1.2,0.8,2.1,2.3,2.1c1.8,0,2.4-0.8,2.9-2.6c0.5-2,1.6-4.7,5.1-4.7c4.5,0,4.5,4.9,4.5,6.5v4.2
				c0,0-15.8,1.2-15.8,10.3c0,3.8,2.5,6.3,6.3,6.3c5.4,0,9.4-4.2,9.4-4.2s0.3,3.7,3.5,3.7c2.5,0,4.2-2,5.5-3.8l-0.8-0.6
				C170.3,68.1,169.3,69.6,168.4,69.6 M162.1,67.4c0,0-3.2,3.4-6.6,3.4c-2.7,0-4.6-2-4.6-4.9c0-6.8,11.2-8.6,11.2-8.6V67.4z"/>
		</g>
		<g>
			<path class="st0" d="M142.6,44.6c-5.7,0-9.2,5.9-9.7,7.7v-7.7l-8.5,3.3v1c3.4,0.1,4.3,1.3,4.3,4.9v11.2c0,5.1-0.6,5.8-4.3,6.4v1
				h13v-1c-3.8-0.5-4.5-1.2-4.5-6.4v-8.2c0-3.7,2.1-8,6.1-8c2.1,0,2.5,0.9,4.3,0.9C146.9,49.7,146.3,44.6,142.6,44.6"/>
		</g>
	</g>
	<g>
		<g>
			<polygon class="st0" points="1006.9,71.7 1000.6,71.7 1000.6,60.5 989.3,60.5 989.3,71.7 982.8,71.7 982.8,44.4 989.3,44.4 
				989.3,54.8 1000.6,54.8 1000.6,44.4 1006.9,44.4 			"/>
		</g>
		<g>
			<path class="st0" d="M1010.6,73.8h1.2c2.6,0,3.1-0.1,3.7-1.7l0.1-0.5l-7.6-20.1h6.8l3.8,12.6l4-12.6h6.6l-8.1,20.3
				c-2.1,5.1-3.5,6.6-8.8,6.6h-2.1v-4.5L1010.6,73.8L1010.6,73.8z"/>
		</g>
		<g>
			<path class="st0" d="M1049.8,71.7h-6.2V69c-1.3,2.2-4,3.2-6.2,3.2c-5.2,0-8.9-4-8.9-10.6s3.7-10.6,8.9-10.6c2.2,0,4.9,1,6.2,3.2
				v-9.8h6.2V71.7z M1039.4,67.4c2.5,0,4.5-1.6,4.5-5.8s-2.1-5.7-4.5-5.7c-2.5,0-4.5,2.1-4.5,5.7C1035,65.3,1036.9,67.4,1039.4,67.4
				"/>
		</g>
		<g>
			<path class="st0" d="M1063.5,57.3c-3,0-4.6,1-4.6,4.3v10.1h-6.2V51.4h6v3.8c1-2.4,2.6-3.9,5.6-4c0.3,0,0.6,0,1,0v6.1
				C1064.5,57.3,1064.1,57.3,1063.5,57.3"/>
		</g>
		<g>
			<path class="st0" d="M1075.7,55c-2.1,0-3.4,1-3.6,3h-5.8c0.3-3.8,4-7.1,9.9-7.1c5.8,0,9.1,2.3,9,8.5l-0.1,4.4
				c0,2.6,0.1,6.2,0.4,7.9h-6.1l-0.1-2.5c-1.5,2.1-3.9,2.9-6.8,2.9c-3.8,0-7-2.3-7-6c0-4.9,5.6-6.6,13.5-7.1v-0.8
				C1079.2,55.9,1078,55,1075.7,55 M1074.9,68c2.5,0,4.3-1,4.3-4.8v-0.5c-4.3,0.4-7.3,1-7.3,3.1C1072.1,67.1,1073.4,68,1074.9,68"/>
		</g>
		<g>
			<polygon class="st0" points="1097.7,56.4 1087.8,56.4 1087.8,51.4 1105.7,51.4 1105.7,56.4 1095,66.7 1106.2,66.7 1106.2,71.7 
				1087.1,71.7 1087.1,66.7 			"/>
		</g>
		<g>
			<path class="st0" d="M1114.9,72.2c-5.4,0-7-3-7-8.6V51.4h6.2V62c0,2.9,0.1,5.3,3.1,5.3c2.6,0,3.6-1.5,3.6-5.2V51.4h6.2v20.3h-6.2
				v-2.8C1119.6,70.8,1118,72.2,1114.9,72.2"/>
		</g>
		<g>
			<rect x="1130.4" y="44.4" class="st0" width="6.2" height="27.3"/>
		</g>
	</g>
	<g>
		<g>
			<path class="st0" d="M811.1,65.2c-0.3-0.6-0.8-1-1.6-1.4c-0.8-0.4-1.7-0.5-2.6-0.5c-0.4,0-0.9,0.1-1.2,0.1
				c-0.4,0.1-0.8,0.3-1.2,0.5c-0.4,0.1-0.6,0.5-0.8,0.8c-0.1,0.4-0.4,0.7-0.4,1.2c0,1,0.4,1.7,1.2,2c0.7,0.4,1.5,0.6,2.3,0.6
				c1.2,0,2.1-0.1,2.8-0.6c0.7-0.4,1.2-0.8,1.6-1.2V65.2L811.1,65.2z M816.8,58.8v14h-5.8v-1.8c-0.5,0.7-1.2,1.2-2.2,1.7
				c-1,0.4-2.2,0.6-3.7,0.6c-1,0-1.9-0.1-2.8-0.5c-0.9-0.4-1.8-0.8-2.5-1.4c-0.7-0.6-1.2-1.3-1.7-2.3c-0.4-0.9-0.6-1.9-0.6-3.1
				c0-1,0.1-2,0.6-2.9c0.4-0.9,1-1.6,1.8-2.2c0.7-0.6,1.6-1.2,2.6-1.4c1-0.4,2-0.5,3.1-0.5c1.2,0,2.2,0.1,3.1,0.4
				c1,0.3,1.7,0.6,2.2,1.2v-1.8c0-1-0.3-1.8-0.9-2.3c-0.5-0.6-1.5-1-2.9-1c-1,0-1.8,0.1-2.3,0.5s-0.9,0.9-1,1.5l-5.6-1
				c0.4-1.8,1.4-3.2,3-4.4c1.5-1.2,3.5-1.8,6.1-1.8c2.9,0,5.3,0.7,6.9,2.2C816,54,816.8,56.2,816.8,58.8 M789.9,59.8l-4.6-1
				c-0.6-0.1-1.2-0.4-1.5-0.6c-0.4-0.3-0.5-0.7-0.5-1.2c0-0.6,0.4-1,1-1.4c0.6-0.4,1.3-0.5,2.1-0.5c1,0,1.9,0.3,2.5,0.7s0.9,1,1,1.7
				l5.6-1c-0.4-1.8-1.3-3.4-2.8-4.4c-1.5-1-3.5-1.6-6.2-1.6s-4.8,0.6-6.5,1.9c-1.7,1.2-2.5,3-2.5,5.2c0,1.8,0.5,3.2,1.6,4.2
				c1,1,2.5,1.6,4.2,2l4.5,1c1.4,0.4,2.1,1,2.1,1.8c0,0.7-0.4,1.2-1,1.6c-0.7,0.4-1.5,0.5-2.5,0.5c-1,0-1.8-0.1-2.5-0.6
				c-0.7-0.4-1-1-1.2-1.8l-5.7,1c0.3,1.9,1.2,3.4,2.8,4.5s3.8,1.6,6.4,1.6c1.4,0,2.7-0.1,3.9-0.5c1.2-0.4,2.1-0.8,3-1.4
				c0.8-0.6,1.5-1.3,1.9-2.2s0.7-1.8,0.7-3C795.9,62.8,793.8,60.7,789.9,59.8 M768.2,72.8h6.1V50.9h-6.1V72.8z M771.2,41.1
				c-1,0-1.8,0.4-2.5,1s-1,1.4-1,2.5c0,1.1,0.4,1.8,1,2.5c0.6,0.6,1.5,0.9,2.5,0.9c1,0,1.8-0.3,2.5-0.9c0.7-0.6,1-1.4,1-2.5
				c0-1.1-0.4-1.8-1-2.5C773,41.5,772.2,41.1,771.2,41.1 M759.4,59.4c-0.1-1.2-0.4-2.1-1-2.9c-0.6-0.8-1.6-1.2-2.9-1.2
				c-1.2,0-2.2,0.4-3,1c-0.8,0.7-1.3,1.8-1.6,3.1L759.4,59.4L759.4,59.4z M764.6,56.8c0.4,1.3,0.7,2.8,0.7,4.4V63h-14.6
				c0.1,1.7,0.5,3,1.4,3.9c0.9,0.9,2,1.4,3.4,1.4c1,0,1.9-0.3,2.7-0.7c0.8-0.4,1.3-1.2,1.6-2.1l5.5,1c-0.5,2-1.7,3.7-3.4,4.8
				c-1.7,1.2-3.8,1.8-6.4,1.8c-1.6,0-3.1-0.3-4.4-0.8c-1.3-0.5-2.5-1.3-3.4-2.3c-1-1-1.7-2.2-2.2-3.6c-0.5-1.4-0.8-3-0.8-4.7
				s0.3-3.1,0.8-4.6c0.5-1.4,1.2-2.6,2.2-3.6c1-1,2-1.8,3.4-2.3c1.3-0.6,2.7-0.9,4.2-0.9c1.6,0,3,0.3,4.2,0.8
				c1.2,0.5,2.3,1.3,3.1,2.2C763.5,54.4,764.2,55.5,764.6,56.8 M740.8,58.4c1.4,1.4,2.1,3.2,2.1,5.6c0,1.4-0.3,2.7-0.9,3.9
				c-0.5,1.2-1.4,2.1-2.5,2.9c-1,0.8-2.3,1.4-3.7,1.8c-1.4,0.4-3,0.6-4.7,0.6c-3.5,0-6.1-0.7-8.1-2c-1.9-1.3-3.1-3.4-3.6-6.1l6.1-1
				c0.3,1.4,0.9,2.3,1.8,3c1,0.6,2.3,1,3.9,1c1.8,0,3.1-0.4,4-1c1-0.7,1.4-1.6,1.4-2.7c0-0.9-0.3-1.7-0.9-2.2
				c-0.5-0.5-1.5-1-2.9-1.3l-5.3-1.2c-1-0.3-2-0.5-2.9-1c-0.9-0.4-1.7-1-2.3-1.6c-0.7-0.6-1.2-1.4-1.6-2.3c-0.4-1-0.6-2-0.6-3.2
				c0-1.4,0.3-2.6,0.8-3.8s1.2-2.1,2.3-2.9c1-0.8,2.1-1.4,3.5-1.8c1.3-0.4,2.9-0.7,4.5-0.7c1.8,0,3.4,0.1,4.7,0.6
				c1.3,0.4,2.5,1,3.4,1.7c0.9,0.7,1.6,1.5,2.1,2.5c0.5,1,0.9,1.9,1,3.1l-5.9,1c-0.1-0.5-0.4-1-0.5-1.5c-0.3-0.4-0.5-0.9-1-1.2
				c-0.4-0.4-0.9-0.6-1.5-0.8c-0.6-0.1-1.3-0.3-2.2-0.3c-1.7,0-2.9,0.4-3.8,1c-0.8,0.6-1.2,1.5-1.2,2.6c0,1.7,1.2,2.8,3.4,3.4
				l5.5,1.2C737.5,56,739.4,57,740.8,58.4"/>
		</g>
	</g>
	<g>
		<g>
			<polygon class="st0" points="1296.3,50.7 1290.9,65 1285.4,50.7 1280.5,50.7 1277.6,72.7 1282.8,72.7 1284.4,61.5 1288.5,72.7 
				1293.3,72.7 1297.5,61.5 1298.9,72.7 1304.1,72.7 1301.2,50.7 			"/>
		</g>
		<g>
			<path class="st0" d="M1318.9,50.4c-6.2,0-12.1,4.8-12.1,11.2s6,11.2,12.1,11.2c6.2,0,12.1-4.8,12.1-11.2
				C1331.1,55.2,1325.2,50.4,1318.9,50.4 M1318.9,68.4c-3.6,0-7-3.1-7-6.7s3.4-6.7,7-6.7s7,3.1,7,6.7
				C1325.9,65.4,1322.6,68.4,1318.9,68.4"/>
		</g>
		<g>
			<polygon class="st0" points="1343.1,66 1336.3,50.7 1331.1,50.7 1340.7,72.7 1345.4,72.7 1355.1,50.7 1349.9,50.7 			"/>
		</g>
		<g>
			<rect x="1357.8" y="50.7" class="st0" width="5.2" height="22"/>
		</g>
		<g>
			<polygon class="st0" points="1416.8,55.4 1416.3,51 1416.3,51 1416.3,50.7 1416.2,50.7 1416.2,50.7 1411.4,50.7 1405.9,65 
				1400.5,50.7 1400.5,50.7 1400.5,50.7 1395.5,50.7 1392.6,72.6 1392.6,72.6 1392.6,72.7 1397.9,72.7 1398.6,66.7 1398.6,66.7 
				1399.3,61.6 1399.3,61.6 1399.3,61.5 1403.5,72.6 1403.6,72.6 1403.6,72.7 1408.3,72.7 1409.7,68.9 1410.3,67.1 1412.5,61.5 
				1414,72.6 1414,72.6 1414,72.7 1419.2,72.7 1416.9,55.4 			"/>
		</g>
		<g>
			<polygon class="st0" points="1422.1,68.2 1422.1,72.7 1441.7,72.7 1441.7,68.2 1427.3,68.2 1427.3,63.8 1438.1,63.8 1438.1,59.3 
				1427.3,59.3 1427.3,55.1 1441.8,55.1 1441.8,50.7 1422.1,50.7 			"/>
		</g>
		<g>
			<path class="st0" d="M1464.7,57.9c0-3.2-2.4-7.1-8.3-7.1h-11.6v22h5.2v-7.4h3.5l6,7.4h6.5l-6.5-7.9
				C1463.1,63.4,1464.7,60.2,1464.7,57.9 M1456.4,60.7h-6.5v-5.6h6.4c1.9,0,3.2,1.2,3.2,2.6C1459.5,59.3,1458.1,60.7,1456.4,60.7"/>
		</g>
		<g>
			<rect x="1468.6" y="50.7" class="st0" width="5.2" height="22"/>
		</g>
		<g>
			<path class="st0" d="M1488.2,54.9c3,0,4.3,0.7,6.5,2.6l3.5-3.4c-3.4-2.6-5.3-3.8-9.8-3.8c-6.2,0-12.2,4.8-12.2,11.2
				c0,6.4,5.6,11.2,11.8,11.2c3.8,0,7-1,9.8-3.5l-3.6-3.5c-1.7,1.8-3.7,2.5-6.2,2.5c-3.6,0-6.6-3.2-6.6-6.7
				C1481.5,58.1,1484.5,54.9,1488.2,54.9"/>
		</g>
		<g>
			<polygon class="st0" points="1375.4,50.7 1365.7,72.7 1370.4,72.7 1380.4,50.7 			"/>
		</g>
		<g>
			<polygon class="st0" points="1379.1,59.8 1380.6,63.2 1377.5,63.2 1375.4,67.7 1382.6,67.7 1384.8,72.7 1390.1,72.7 1381.8,54 
							"/>
		</g>
		<g>
			<polygon class="st0" points="1510.2,50.7 1500.5,72.7 1505.1,72.7 1515.1,50.7 			"/>
		</g>
		<g>
			<polygon class="st0" points="1516.6,54 1513.8,59.8 1515.4,63.2 1512.3,63.2 1510.2,67.7 1517.3,67.7 1519.5,72.7 1524.9,72.7 
							"/>
		</g>
	</g>
	<g>
		<g>
			<polygon class="st0" points="292.2,72.6 303.9,72.6 303.9,69.6 295.3,69.6 295.3,51.2 292.2,51.2 			"/>
		</g>
		<g>
			<polygon class="st0" points="329.8,50.7 329.8,72.6 332.8,72.6 332.8,58 347.6,73.1 347.6,51.2 344.5,51.2 344.5,65.8 			"/>
		</g>
		<g>
			<path class="st0" d="M370,61.9c0,5.9-4,10.7-10.9,10.7h-6.4V51.3h6.4C366.2,51.2,370,56,370,61.9 M367,61.9
				c0-4.2-2.9-7.6-7.1-7.6h-4.2v15.3h4.2C364,69.6,367,66.1,367,61.9"/>
		</g>
		<g>
			<polygon class="st0" points="319,51.2 309,72.6 312.3,72.6 322.1,51.2 			"/>
		</g>
		<g>
			<path class="st0" d="M324.7,66c0,1.7-1.4,3.1-3.1,3.1s-3.1-1.4-3.1-3.1c0-1.7,1.4-3.1,3.1-3.1C323.3,62.8,324.7,64.3,324.7,66"/>
		</g>
		<g>
			<polygon class="st0" points="292.2,51.2 292.2,72.6 303.9,72.6 303.9,69.6 295.3,69.6 295.3,51.2 			"/>
		</g>
		<g>
			<polygon class="st0" points="329.8,50.7 329.8,72.6 332.8,72.6 332.8,58 347.6,73.1 347.6,51.2 344.5,51.2 344.5,65.8 			"/>
		</g>
		<g>
			<path class="st0" d="M370,61.9c0,5.9-4,10.7-10.9,10.7h-6.4V51.3h6.4C366.2,51.2,370,56,370,61.9 M367,61.9
				c0-4.2-2.9-7.6-7.1-7.6h-4.2v15.3h4.2C364,69.6,367,66.1,367,61.9"/>
		</g>
		<g>
			<polygon class="st0" points="319,51.2 309,72.6 312.3,72.6 322.1,51.2 			"/>
		</g>
		<g>
			<path class="st0" d="M324.7,66c0,1.7-1.4,3.1-3.1,3.1s-3.1-1.4-3.1-3.1c0-1.7,1.4-3.1,3.1-3.1C323.3,62.8,324.7,64.3,324.7,66"/>
		</g>
		<g>
			<path class="st0" d="M394.1,72.9c-2,0-3.8-0.5-5.5-1.4c-1.7-0.9-3-2.3-4-4c-0.9-1.7-1.4-3.5-1.4-5.5s0.5-3.8,1.4-5.5
				c0.9-1.7,2.3-3,4-4c1.7-0.9,3.5-1.4,5.5-1.4c2,0,3.8,0.5,5.5,1.4c1.7,0.9,3,2.3,4,4c0.9,1.7,1.4,3.5,1.4,5.5s-0.5,3.8-1.4,5.5
				c-0.9,1.7-2.3,3-4,4C397.9,72.4,396,72.9,394.1,72.9 M394.1,54.5c-1.3,0-2.5,0.4-3.7,0.9c-1.2,0.7-2,1.6-2.6,2.7
				c-0.6,1.2-0.9,2.3-0.9,3.7c0,1.3,0.4,2.5,0.9,3.7c0.6,1.2,1.6,2,2.6,2.7c1.2,0.7,2.3,0.9,3.7,0.9c1.4,0,2.5-0.4,3.7-0.9
				c1.2-0.7,2-1.6,2.6-2.7c0.6-1.2,0.9-2.3,0.9-3.7c0-1.3-0.4-2.6-0.9-3.7c-0.6-1.2-1.6-2-2.6-2.7C396.6,54.9,395.4,54.5,394.1,54.5
				"/>
		</g>
		<g>
			<path class="st0" d="M409.4,72.7V51h1.8h6.3c0.9,0,1.9,0.1,2.7,0.5c0.9,0.4,1.7,0.8,2.4,1.4c0.7,0.6,1.3,1.4,1.7,2.2
				c0.4,0.9,0.6,1.7,0.6,2.6c0,0.9-0.1,1.8-0.6,2.6s-0.9,1.6-1.7,2.2c-0.7,0.6-1.4,1-2.4,1.4c-0.9,0.4-1.8,0.5-2.7,0.5h-4.4v8.5
				L409.4,72.7z M413.1,60.6h4.4c1.2,0,2-0.4,2.7-0.9c0.7-0.5,0.9-1.2,0.9-2s-0.4-1.4-0.9-2c-0.7-0.6-1.7-0.9-2.7-0.9h-4.4V60.6z"/>
		</g>
		<g>
			<polygon class="st0" points="429.4,72.7 429.4,51 443.1,51 443.1,54.7 433.1,54.7 433.1,60 440.6,60 440.6,63.7 433.1,63.7 
				433.1,69 443.1,69 443.1,72.7 			"/>
		</g>
		<g>
			<path class="st0" d="M459.2,72.7l-7.3-9.5v9.5h-3.7V51h8c1,0,2.1,0.1,2.9,0.5c0.9,0.4,1.7,0.9,2.4,1.4c0.7,0.6,1.2,1.3,1.7,2.2
				c0.4,0.8,0.5,1.7,0.5,2.5c0,1.3-0.4,2.6-1.3,3.7c-0.8,0.9-1.7,1.7-2.7,2.1c-0.4,0.1-0.9,0.3-1.4,0.4c-0.5,0.1-0.9,0.1-1.2,0.1
				l6.5,8.7L459.2,72.7z M451.9,54.7v5.8h3.2c1.3,0,2.3-0.1,3.1-0.5c0.5-0.1,0.9-0.5,1.2-0.9c0.4-0.4,0.5-0.9,0.5-1.4
				c0-0.7-0.4-1.4-0.9-1.9c-0.7-0.7-1.7-0.9-2.9-0.9L451.9,54.7z"/>
		</g>
		<g>
			<path class="st0" d="M472.3,69.8l-1.4,2.9h-4.1l10-21.7l9.5,21.7h-4.1l-1.3-2.9H472.3z M476.8,60l-2.7,6h5.4L476.8,60z"/>
		</g>
		<g>
			<polygon class="st0" points="503.2,51.1 503.2,54.8 496.7,54.8 496.7,72.7 493,72.7 493,54.8 486.5,54.8 486.5,51.1 			"/>
		</g>
		<g>
			<rect x="507.9" y="51.1" class="st0" width="3.7" height="21.7"/>
		</g>
		<g>
			<path class="st0" d="M527.5,72.9c-2,0-3.8-0.5-5.5-1.4c-1.7-0.9-3-2.3-4-4c-0.9-1.7-1.4-3.5-1.4-5.5s0.5-3.8,1.4-5.5
				c0.9-1.7,2.3-3,4-4c1.7-0.9,3.5-1.4,5.5-1.4c2,0,3.8,0.5,5.5,1.4c1.7,0.9,3,2.3,4,4c0.9,1.7,1.4,3.5,1.4,5.5s-0.5,3.8-1.4,5.5
				s-2.3,3-4,4C531.4,72.4,529.4,72.9,527.5,72.9 M527.5,54.5c-1.3,0-2.5,0.4-3.7,0.9c-1.2,0.7-2,1.6-2.6,2.7
				c-0.6,1.2-0.9,2.3-0.9,3.7c0,1.3,0.4,2.5,0.9,3.7c0.6,1.2,1.6,2,2.6,2.7c1.2,0.7,2.3,0.9,3.7,0.9c1.4,0,2.5-0.4,3.7-0.9
				c1.2-0.7,2-1.6,2.6-2.7c0.6-1.2,0.9-2.3,0.9-3.7c0-1.3-0.4-2.6-0.9-3.7c-0.6-1.2-1.6-2-2.6-2.7C530.1,54.9,528.8,54.5,527.5,54.5
				"/>
		</g>
		<g>
			<polygon class="st0" points="546.5,59.8 546.5,72.7 542.8,72.7 542.8,50.7 556.3,64 556.3,51.1 559.8,51.1 559.8,73.2 			"/>
		</g>
		<g>
			<path class="st0" d="M580.1,63.5c0.6,0.9,0.9,2,0.9,3c0,0.9-0.3,1.7-0.7,2.6c-0.4,0.9-1.2,1.6-1.9,2.2c-0.8,0.5-1.6,0.9-2.6,1.3
				c-0.9,0.3-2,0.4-2.9,0.4c-1,0-2-0.1-2.9-0.4c-0.9-0.3-1.8-0.7-2.6-1.3c-1-0.8-1.8-1.7-2.2-2.7l3.3-1.9c0,0.4,0.1,0.7,0.4,0.9
				c0.3,0.3,0.4,0.5,0.7,0.7c0.4,0.4,0.9,0.5,1.6,0.7c0.6,0.2,1.2,0.3,1.8,0.3c0.6,0,1.2-0.1,1.8-0.3c0.6-0.1,1.2-0.4,1.6-0.7
				c0.7-0.5,1.2-1.2,1.2-1.7c0-0.4-0.1-0.8-0.4-1.2s-0.7-0.7-1.2-0.9c-0.4-0.3-1.4-0.5-3.1-0.7c-1.8-0.1-3.2-0.5-4.1-0.9
				c-1.2-0.5-2.1-1.3-2.7-2.3c-0.7-0.9-0.9-2.1-0.9-3.2c0-0.9,0.3-1.7,0.7-2.6c0.4-0.9,1.2-1.6,1.9-2.2c0.8-0.5,1.6-0.9,2.6-1.3
				c0.9-0.3,2-0.4,2.9-0.4c1,0,2,0.1,2.9,0.4c0.9,0.3,1.8,0.7,2.6,1.3c1,0.8,1.8,1.7,2.2,2.7l-3.3,1.9c0-0.6-0.4-1.2-1.2-1.7
				c-0.4-0.4-0.9-0.5-1.6-0.7c-0.6-0.1-1.2-0.3-1.8-0.3c-0.6,0-1.2,0.1-1.8,0.3c-0.6,0.1-1.2,0.4-1.6,0.7c-0.7,0.5-1.2,1.2-1.2,1.7
				c0,0.4,0.1,0.9,0.4,1.2c0.4,0.4,0.7,0.7,1.3,0.9c0.4,0.1,0.8,0.3,1.2,0.4c0.5,0.1,1,0.1,1.7,0.3c2,0.3,3.4,0.6,4.3,1.2
				C578.6,61.7,579.4,62.5,580.1,63.5"/>
		</g>
	</g>
	<g>
		<g>
			<g>
				<polygon class="st0" points="1964.8,54.7 1964.8,59.2 1975.8,59.2 1975.8,63.8 1964.8,63.9 1964.8,68.5 1977.3,68.5 
					1977.3,73.1 1959,73.1 1959,50 1977,50 1977,54.6 				"/>
			</g>
			<g>
				<path class="st0" d="M2027.3,53.6l-3.4,4c-1.5-1.8-3.7-3-5.8-3c-3.6,0-6.4,2.9-6.4,6.7s2.8,6.8,6.4,6.8c1.9,0,4.2-1,5.7-2.7
					l3.4,3.6c-2.4,2.6-6.1,4.2-9.5,4.2c-6.9,0-12.1-5.1-12.1-11.8c0-6.6,5.3-11.7,12.3-11.7C2021.5,49.8,2025,51.3,2027.3,53.6"/>
			</g>
			<g>
				<polygon class="st0" points="2124.5,73 2113.9,58.8 2113.9,73 2108.4,73 2108.4,49.9 2113.6,49.9 2124.2,64.2 2124.2,49.9 
					2129.6,49.9 2129.6,73 				"/>
			</g>
		</g>
		<g>
			<path class="st0" d="M2076.3,53.4L2076.3,53.4c-0.1-0.2-0.3-0.4-0.5-0.5c-2-1.9-4.8-3.2-7.9-3.4c-0.1,0-0.1,0-0.1,0s-0.1,0-0.2,0
				c-0.1,0-0.3,0-0.4,0l0,0l0,0c-0.1,0-0.3,0-0.4,0c-0.1,0-0.1,0-0.2,0c-0.1,0-0.1,0-0.1,0c-3.2,0.1-6,1.4-7.9,3.4
				c-0.1,0.1-0.4,0.4-0.5,0.5l0,0c-1.8,2.1-2.9,4.7-2.9,7.8c0,6.8,5.1,11.8,12.1,11.8c0.1,0,0.1,0,0.1,0s0.1,0,0.1,0
				c6.9,0,12.1-5.1,12.1-11.8C2079.3,58.1,2078.2,55.4,2076.3,53.4z M2067,67.8c-3.6-0.1-6.2-2.9-6.2-6.8c0-3.7,2.6-6.6,6.2-6.7
				c3.6,0.1,6.2,2.9,6.2,6.7C2073.2,64.9,2070.6,67.8,2067,67.8z"/>
		</g>
	</g>
</g>
</svg>
